<?xml version="1.0" encoding="iso-8859-1"?>
<!-- Generator: Adobe Illustrator 19.0.0, SVG Export Plug-In . SVG Version: 6.00 Build 0)  -->
<svg version="1.1" id="Capa_1" xmlns="http://www.w3.org/2000/svg" xmlns:xlink="http://www.w3.org/1999/xlink" x="0px" y="0px"
	 viewBox="0 0 512 512" style="enable-background:new 0 0 512 512;" xml:space="preserve">
<polygon style="fill:#E7E7E7;" points="466,150 466,512 46,512 46,0 316,0 335.799,55.199 355.3,110.7 410.799,130.199 "/>
<polygon style="fill:#D3D3D8;" points="466,150 466,512 256,512 256,0 316,0 335.799,55.199 355.3,110.7 410.799,130.199 "/>
<rect x="346" y="390" style="fill:#BABAC0;" width="30" height="30"/>
<g>
	<rect x="136" y="120" style="fill:#D3D3D8;" width="120" height="30"/>
	<rect x="136" y="210" style="fill:#D3D3D8;" width="240" height="30"/>
	<rect x="136" y="300" style="fill:#D3D3D8;" width="240" height="30"/>
	<rect x="136" y="390" style="fill:#D3D3D8;" width="180" height="30"/>
</g>
<g>
	<polygon style="fill:#BABAC0;" points="316,150 466,150 316,0 	"/>
	<rect x="256" y="390" style="fill:#BABAC0;" width="60" height="30"/>
	<rect x="256" y="210" style="fill:#BABAC0;" width="120" height="30"/>
	<rect x="256" y="300" style="fill:#BABAC0;" width="120" height="30"/>
</g>
<g>
</g>
<g>
</g>
<g>
</g>
<g>
</g>
<g>
</g>
<g>
</g>
<g>
</g>
<g>
</g>
<g>
</g>
<g>
</g>
<g>
</g>
<g>
</g>
<g>
</g>
<g>
</g>
<g>
</g>
</svg>
